<?xml version="1.0" encoding="UTF-8"?>
<svg width="80px" height="61px" viewBox="0 0 80 61" version="1.1" xmlns="http://www.w3.org/2000/svg" xmlns:xlink="http://www.w3.org/1999/xlink">
    <title>Shape</title>
    <g id="Symbols" stroke="none" stroke-width="1" fill="none" fill-rule="evenodd">
        <g id="3rd-Part-Logos-/-discord-logo" fill="#FFFFFF" fill-rule="nonzero">
            <g id="Discord-Logo-Black">
                <path d="M67.7233785,5.05656716 C62.6244491,2.71610211 57.1566182,0.991750609 51.4396606,0.00414288626 C51.3355479,-0.0149176339 51.2315479,0.0327156318 51.1779141,0.127984418 C50.4747029,1.37916047 49.6957733,3.01142182 49.1503086,4.29437179 C43.001351,3.37347025 36.8839427,3.37347025 30.8610696,4.29437179 C30.3154921,2.9829043 29.5082809,1.37916047 28.8019147,0.127984418 C28.7482809,0.0358942638 28.6442809,-0.011739002 28.5401682,0.00414288626 C22.8263655,0.98859452 17.3585347,2.71294602 12.2564503,5.05656716 C12.2122813,5.07561641 12.1744221,5.10740273 12.1492954,5.14865732 C1.77797166,20.6488843 -1.06316742,35.7681262 0.330600432,50.6999191 C0.33690691,50.77296 0.377899585,50.8428448 0.434660147,50.8872555 C7.27736308,55.9142282 13.9056897,58.966053 20.410929,60.9888803 C20.5150416,61.0206666 20.6253515,60.9825681 20.691605,60.8967902 C22.2304219,58.7946098 23.6021402,56.5780212 24.7782528,54.2470244 C24.8476613,54.1105236 24.7814077,53.9485486 24.6395486,53.8945569 C22.463774,53.0689017 20.3919994,52.0622221 18.399098,50.9190418 C18.2414642,50.8269516 18.2288445,50.601404 18.3738586,50.4934207 C18.7932389,50.1790518 19.2127318,49.8519457 19.6131825,49.5216836 C19.6856332,49.4613798 19.786591,49.4486427 19.871774,49.4867412 C32.9642808,55.4665145 47.1384776,55.4665145 60.0765055,49.4867412 C60.1616886,49.4454866 60.2626463,49.4582237 60.338252,49.5185275 C60.7388153,49.8487896 61.1581956,50.1790518 61.5807308,50.4934207 C61.7257449,50.601404 61.7162801,50.8269516 61.5586463,50.9190418 C59.5657449,52.0844275 57.4939703,53.0689017 55.3150408,53.8914009 C55.1731817,53.9453925 55.1100831,54.1105236 55.1794915,54.2470244 C56.3808436,56.5747524 57.7525619,58.791341 59.2629844,60.8936341 C59.326083,60.9825681 59.4395478,61.0206666 59.5436604,60.9888803 C66.080449,58.966053 72.7087305,55.9142282 79.5514346,50.8872555 C79.6113783,50.8428448 79.6492374,50.7761161 79.6555473,50.7030752 C81.3236036,33.4402855 76.8616318,18.4450327 67.8273785,5.15181341 C67.805294,5.10740273 67.7675476,5.07561641 67.7233785,5.05656716 Z M26.7334077,41.6080171 C22.7916613,41.6080171 19.5437741,37.9878709 19.5437741,33.5419567 C19.5437741,29.0960424 22.7286754,25.4758962 26.7334077,25.4758962 C30.7695766,25.4758962 33.9860272,29.1278287 33.9229286,33.5419567 C33.9229286,37.9878709 30.7380273,41.6080171 26.7334077,41.6080171 Z M53.3158296,41.6080171 C49.3741959,41.6080171 46.1263086,37.9878709 46.1263086,33.5419567 C46.1263086,29.0960424 49.3110973,25.4758962 53.3158296,25.4758962 C57.3521112,25.4758962 60.5684491,29.1278287 60.5054632,33.5419567 C60.5054632,37.9878709 57.3521112,41.6080171 53.3158296,41.6080171 Z" id="Shape"></path>
            </g>
        </g>
    </g>
</svg>