<svg version="1.2" xmlns="http://www.w3.org/2000/svg" viewBox="0 0 401 520" width="395" height="512">
	<title>Logo</title>
	<style>
		.s0 { fill: #000000 } 
	</style>
	<g id="Layer 1">
		<g id="ZiuqnM 00000024722637700864673350000010884545327218453138 ">
			<g id="&lt;Group&gt;">
				<path id="&lt;Path&gt;" class="s0" d="m113.4 152.3c-27.1 11.2-49.5 35.3-58.5 60.9-18.3 52.1 22.8 106.1 15.2 110.4-3 1.7-13-5.3-45.2-49.4-2.3 2.1-5.2 5.3-7.4 9.8-5.7 11.6-2.5 23-1.5 26.3-5.2-11.2-11.9-30.1-10.4-53.4 0.6-10.1 1.2-19.8 6.8-30.7 8-15.6 21.1-23.8 18.7-27.8-1.3-2.3-6.6-1.7-9.3-0.9-9.9 2.6-17 14.5-18.6 30.2-0.5-6.6-1.6-34.3 18.2-59.6 18.6-23.7 43.4-29.8 50.3-31.3-12.8 8.8-15.4 12.4-14.8 13.8 1.3 2.6 15 0.3 25.2-7.5 7.9-6 16.7-17.5 13.3-23.1-2.9-4.9-14.8-5-28.4 0.5 19.4-22.3 67.9-41.7 89.5-36.3-7.4 4.8-15.9 10.3-24.4 15.8 12.4 7.8 22.6 14.2 33.9 21.3-14.7 3.9-26.4 7-40 10.7 9.4 4.6 16.1 7.9 22.8 11.2-12.6 3.1-24.6 4.6-35.4 9.1z"/>
				<path id="&lt;Path&gt;" class="s0" d=""/>
				<path id="&lt;Compound Path&gt;" fill-rule="evenodd" class="s0" d="m288 186.4c-4.9-4.3-10.4-7.9-15.2-12.3-13.9-12.4-27.7-25.1-41.5-37.6q0.7-0.9 1.5-1.8 6.8 2.5 13.5 5 0.9-1.2 1.8-2.4c-4-6.4-8-12.9-13.3-21.5 12.6 7 22.6 13.3 33.2 18 5.3 2.3 12 1.9 18 2.7-0.8-6.8 0.2-14.8-3-20.2-6-10.2-14.5-18.9-22.4-28.9 23.1 10 43.3 23.2 54.3 45.9 20.7 42.8 26.2 53.6 56.7 76.6 10.7 8.1 28 18.5 26 28.2-1 4.4-5.6 7.8-9.3 10.4-7.4 5.3-14.9 6.6-18.9 7-14.9 4.8-27.5 5.5-35.6 5.3 0 0-31.6-0.5-64.8-20.9-1.1-0.7-2.1-1.4-2.1-1.4-2.1-1.6-3.9-3.5-5.8-5.2 19.1 3.1 36.8 9.1 55 12.9 9.2 1.9 19.7 1 28.9-1.3 4.5-1.1 11.4-10 10.4-12.2-3-6.5-8.6-13-14.9-16.5-3.8-2.1-12.6-0.9-15.9 2.2-12.6 12.1-26.3 13.8-43.7 8.2 23.8-10.4 25.8-23.9 7.1-40.2zm0.7-24.7q-6.9-0.6-13.9-1.2 13.5 11.8 26.9 23.7-6.5-11.3-13-22.5z"/>
				<path id="&lt;Path&gt;" class="s0" d="m191 125c2.5-3.7 2.9-7.8 2.9-8.8 0 0 0-0.1 0-0.1 0.4-6-6.1-13.9-8.2-16.5-7.2-8.8-9.4-11.9-9-12.4 0.6-0.6 5.1 4.3 7.7 3 2.6-1.2 2-7.3 1.6-11.5-0.5-4.8-1.8-11.8-5.3-20.2 10.1 18.9 20.5 38.2 30.6 56.9-0.6 0-2.5 0.3-4.4 0.5q-1 1.6-2 3.2c4.1 2.9 8.3 5.9 10.5 7.5-5.7 4.4-10.5 8-15.3 11.5 5 3.4 9.8 7 15 9.9 9.2 5.2 18.6 10 27.9 15-10 0.3-19-2.8-27.5-1.9-5.9 0.6-11.3 6.7-17 10.3 5.9 2.2 11.8 4.6 17.8 6.6 1.5 0.5 3.5-0.4 5.1-0.2 13.9 2.3 27.7 4.8 41.5 7.2-21.2 8.9-45.1 1.5-64.2 20.2 13.5 4.6 25.5 8.6 40.8 13.8-14.6 1-26.4-0.3-36.7 3.1-10.2 3.3-19 11.3-28.2 17.1-5.6-15.7-1.5-31.1 5.2-46.7 1.9-4.3 1.2-13.4-1.5-15-4.2-2.4-11.5-1.6-16.6 0.1-4.8 1.7-8.5 6.4-12.7 9.7q-0.8-0.6-1.6-1.2c5.2-8.4 10.4-16.8 16.9-27.1-8.9 1.8-15.4 3.1-21.8 4.4q-0.9-1.3-1.7-2.6c8.3-6.1 16.6-12.2 26-19.1-5.4-3.5-8.9-5.7-14.8-9.6 15.8 0.9 30.5 5.6 39-7.1z"/>
				<path id="&lt;Path&gt;" class="s0" d="m235.3 67.7c4.3 4.7 8.5 9.5 12.9 14 7.7 8 6.2 15.9-0.7 22.9-10.1 10.2-31.4 7.4-36.5-5.9-5.3-13.9-6.5-29.4-11.2-43.6-3.4-10.3-8.6-20.4-15-29.3-5-7-11.6-4.1-12.4 4-2.5 27.1-6.4 54.4 9.4 79.5 2.6 4.1 3 9.5 4.4 14.4q-1.9 1.1-3.8 2.2c-10.8-8.8-21.5-17.5-35-28.5 8.2 0.4 12.4 0.7 16.8 0.9 0.1-31.2 1.9-61.7 11.3-92.3 9.3 7.7 16.3 16.1 23.8 24.2 12 12.8 24.3 25.3 36.5 38z"/>
				<path id="&lt;Path&gt;" class="s0" d="m235.8 68.2c-9.7-14.7-10.7-30-1.3-50q22.8 38.1 45.6 76.3-5.2-3.6-10.4-7.2-17.2-9.8-34.4-19.6 0.3 0.5 0.5 0.5z"/>
				<path id="&lt;Path&gt;" class="s0" d="m328 259.6q-33.5-13.1-66.9-26.3c-8.8-0.3-12.3 2.9-13.5 4.2-6.7 7.2-3.8 24.9 10.9 41.6 0.7 12.6 3.3 29.2 10.9 47.1 5.1 12 10.9 20.9 14.7 26.2 11.3 15.8 23.8 26.1 32.6 32.4-2.6-0.3-6.2-0.9-10.2-2.3-11.1-3.6-17.4-9.7-17.9-9.3-0.7 0.9 27.1 18.2 40.1 44.7 10.3 20.8 9 42.5 6.3 57.7-4.7-12.9-13.4-31.6-29.8-49.5-21.6-23.6-36.3-23.5-61.7-48.9-26-26.2-37.2-53.1-38-52.6-0.7 0.4 9.6 24.1 29.3 51.2 30.3 42.1 52.5 46.3 57.9 73.4 6 30.7-4.5 55.5-8.9 64.4-0.9-8.2-3.1-21.2-9-36-6.9-17.1-14.9-27.3-40-59.6-4.3-5.5-15.2-19.6-32-41.2q0-0.1 0-0.1c0 0 23.1 33.6 35.2 73.3 6.5 21.6 13.8 45.4 1.9 56.9-9.4 9.2-26.4 6.2-33.9 4.5 2.1-2.6 5.2-6.9 6.9-12.8 2.7-9.7 0.4-18.6-2.7-26.8-10.3-27.5-36.2-65.9-39.5-70.7-11.4 9.1-20.6 10.6-26.4 10.6-17 0-31.7-15.9-64-44-1.9-1.6-3.6-3.3-5.6-5.3-16.4-17-32.9-42.2-42.3-80.6q7.4-38.8 14.7-77.6c20.8-41.1 40.7-57.8 55.8-65.2 5.7-2.8 20.6-9.1 24.5-22.5 2.6-9.2-2.1-14.6 0.9-21.5 2.7-6.1 11.2-13 38.9-14 10 36 18.1 44.1 23.8 44 4.2 0 6.4-4.4 15.9-11.9 8.9-6.9 17.3-11.1 23.2-13.7q2.7-17.5 5.4-35 17.3 9.1 34.5 18.2 14.6 13.8 29.2 27.7 6 21.3 11.9 42.7c-0.7-1.3-5.5-9.8-15.2-11.5-9.5-1.6-20.2 4-22.1 11.8-1.6 6.6 3.6 12.8 8.1 18 9 10.6 19.2 15.5 28.5 19.9 38.5 18.2 45.6 19.6 52.7 28.8 6.5 8.4 8.8 17.9 9.6 25.9q-22.3 6.8-44.7 13.7z"/>
			</g>
		</g>
		<path id="&lt;Path&gt;" class="s0" d="m99.6 355.1c27 27.9 46.4 55.6 51.8 52.3 5.7-3.5-11.3-37.6-7.2-39.8 4.1-2 23 28.1 26.5 33.5 26.4 41.9 30 61.4 31.1 71 1 9.2 2.8 27.2-6.6 33.3-5 3.3-11.3 1.9-14.8 1-33-8.1-68.5-32.3-98.3-50.5-13.7-8.4-14.4-8.2-31.7-18.9-37.2-23.2-47.2-31.1-47.2-31.2 0.2-0.2 59.7 33 109.4 53.1 5.8 2.4 25.4 10.1 45.7 3.4 4.6-1.5 14.1-4.6 15.3-10.9 1.4-7.6-10.6-13.8-28.4-28.1-25.5-20.6-42.3-41.5-43.6-40.3-0.7 0.7 6 6.5 8 17 1.4 7 0.1 13.5-1.7 18.5-5.7-16.6-14-25.8-20.4-31-11-9.1-17.5-7.3-27.9-17.4-9.5-9.2-13.4-19.5-17.3-29.5-4.8-12.5-4.5-18.3-8.5-36.5-2-8.9-5.2-21.8-10.4-37.5 30 39.3 56.8 68.7 76.2 88.5z"/>
	</g>
</svg>