<?xml version="1.0" encoding="UTF-8"?>
<svg width="389px" height="500px" viewBox="0 0 389 500" version="1.1" xmlns="http://www.w3.org/2000/svg" xmlns:xlink="http://www.w3.org/1999/xlink">
    <title>wolflogo</title>
    <g id="Page-2" stroke="none" stroke-width="1" fill="none" fill-rule="evenodd">
        <g id="wolflogo" fill="#FFFFFF">
            <g id="&lt;Group&gt;">
                <path d="M108.751102,144.110973 C82.0565886,155.143392 59.9917507,178.882793 51.126414,204.099751 C33.1002295,255.4202 73.5852669,308.612219 66.0989826,312.84788 C63.1438704,314.522444 53.2934963,307.627182 21.5752918,264.187032 C19.3097058,266.255611 16.4530973,269.407731 14.286015,273.840399 C8.67130179,285.266833 11.8234215,296.496259 12.8084589,299.746883 C7.68626438,288.714464 1.08651376,270.097257 2.56406987,247.145885 C3.15509232,237.197007 3.74611476,227.642145 9.26232424,216.905237 C17.1426235,201.538653 30.0466135,193.461347 27.6825237,189.521197 C26.4019751,187.255611 21.1812769,187.846633 18.5216759,188.634663 C8.76980553,191.195761 1.77603995,202.917706 0.199980096,218.382793 C-0.292538608,211.881546 -1.37607975,184.59601 18.1276609,159.674564 C36.4493567,136.329177 60.8782843,130.320449 67.6750424,128.842893 C55.0665636,137.511222 52.5054664,141.057357 53.0964888,142.436409 C54.3770375,144.997506 67.8720499,142.73192 77.9194315,135.048628 C85.701227,129.138404 94.3695562,117.810474 91.020429,112.294264 C88.1638205,107.467581 76.4418754,107.369077 63.0453666,112.786783 C82.1550923,90.8204489 129.929407,71.7107232 151.206215,77.0299252 C143.916938,81.7581047 135.54412,87.1758105 127.171302,92.5935162 C139.385766,100.276808 149.433147,106.581047 160.56407,113.574813 C146.08402,117.416459 134.559082,120.470075 121.162574,124.114713 C130.421925,128.645885 137.021676,131.896509 143.621426,135.147132 C131.209955,138.200748 119.389506,139.678304 108.751102,144.110973 L108.751102,144.110973 Z" id="&lt;Path&gt;" fill-rule="nonzero"></path>
                <path d="M280.738633,177.700748 C275.91195,173.465087 270.494244,169.918953 265.766065,165.584788 C252.074045,153.370324 238.480529,140.860349 224.887013,128.547382 C225.346697,127.956359 225.839215,127.365337 226.364569,126.774314 C230.830072,128.416043 235.26274,130.057772 239.662574,131.699501 C240.253596,130.911471 240.844618,130.123441 241.435641,129.335411 C237.495491,123.031172 233.555342,116.628429 228.334643,108.157107 C240.746115,115.052369 250.596489,121.258105 261.037885,125.887781 C266.258584,128.153367 272.858334,127.759352 278.768559,128.547382 C277.980529,121.849127 278.965566,113.968828 275.813446,108.649626 C269.903222,98.6022444 261.530404,90.032419 253.748609,80.1820449 C276.502973,90.032419 296.400728,103.034913 307.23614,125.395262 C327.626414,167.554863 333.04412,178.193267 363.087761,200.849127 C373.627661,208.82793 390.668808,219.072319 388.698733,228.627182 C387.713696,232.961347 383.182524,236.310474 379.537885,238.871571 C372.248609,244.092269 364.860828,245.372818 360.920678,245.766833 C346.243621,250.495012 333.83215,251.184539 325.853347,250.987531 C325.853347,250.987531 294.726165,250.495012 262.022923,230.400249 C260.939382,229.710723 259.954344,229.021197 259.954344,229.021197 C257.885766,227.445137 256.112698,225.573566 254.241127,223.899002 C273.055342,226.952618 290.490504,232.862843 308.418185,236.605985 C317.480529,238.477556 327.823421,237.591022 336.885766,235.325436 C341.318434,234.241895 348.115192,225.475062 347.130155,223.30798 C344.175042,216.905237 338.658833,210.502494 332.453097,207.054863 C328.709955,204.986284 320.041626,206.168329 316.791003,209.221945 C304.379531,221.140898 290.884519,222.815461 273.744868,217.299252 C297.188758,207.054863 299.158833,193.756858 280.738633,177.700748 L280.738633,177.700748 Z M281.42816,153.370324 C276.896988,152.976309 272.332981,152.582294 267.73614,152.188279 C276.601476,159.93724 285.433978,167.719036 294.233646,175.533666 C289.965151,168.113051 285.696655,160.72527 281.42816,153.370324 Z" id="&lt;Compound-Path&gt;"></path>
                <path d="M185.190005,117.219451 C187.652599,113.574813 188.046614,109.53616 188.046614,108.551122 C188.046614,108.551122 188.046614,108.452618 188.046614,108.452618 C188.440628,102.542394 182.037885,94.7605985 179.969307,92.1995012 C172.877037,83.5311721 170.709955,80.4775561 171.10397,79.9850374 C171.694993,79.394015 176.127661,84.2206983 178.688758,82.9401496 C181.249855,81.7581047 180.658833,75.7493766 180.264818,71.6122195 C179.772299,66.8840399 178.491751,59.9887781 175.04412,51.7144638 C184.992998,70.3316708 195.237387,89.3428928 205.186264,107.763092 C204.595242,107.763092 202.723671,108.058603 200.8521,108.255611 C200.195408,109.306318 199.538717,110.357024 198.882025,111.407731 C202.920678,114.264339 207.057835,117.219451 209.224918,118.795511 C203.610205,123.129676 198.882025,126.67581 194.153845,130.123441 C199.079032,133.472569 203.807212,137.018703 208.929407,139.875312 C217.991751,144.997506 227.251102,149.725686 236.41195,154.650873 C226.561576,154.946384 217.696239,151.892768 209.323421,152.779302 C203.511701,153.370324 198.192499,159.379052 192.577786,162.925187 C198.389506,165.092269 204.201227,167.456359 210.111451,169.426434 C211.589008,169.918953 213.559082,169.032419 215.135142,169.229426 C228.827162,171.495012 242.420678,173.957606 256.014195,176.321696 C235.131402,185.088529 211.589008,177.799252 192.774793,196.219451 C206.072798,200.750623 217.893247,204.690773 232.964319,209.812968 C218.582773,210.798005 206.959332,209.517456 196.813446,212.866584 C186.766065,216.117207 178.097736,223.997506 169.035392,229.710723 C163.519182,214.245636 167.557835,199.07606 174.157586,183.709476 C176.029157,179.473815 175.339631,170.509975 172.68003,168.933915 C168.542873,166.569825 161.3521,167.357855 156.328409,169.032419 C151.600229,170.706983 147.955591,175.336658 143.818434,178.587282 C143.293081,178.193267 142.767727,177.799252 142.242374,177.405237 C147.364569,169.130923 152.486763,160.856608 158.889506,150.710723 C150.122673,152.483791 143.71993,153.764339 137.415691,155.044888 C136.824668,154.191189 136.266481,153.33749 135.741127,152.483791 C143.916938,146.475062 152.092748,140.466334 161.3521,133.669576 C156.032898,130.221945 152.585267,128.054863 146.773546,124.213217 C162.337137,125.099751 176.817187,129.729426 185.190005,117.219451 L185.190005,117.219451 Z" id="&lt;Path&gt;" fill-rule="nonzero"></path>
                <path d="M228.827162,60.776808 C233.062823,65.4064838 237.19998,70.1346633 241.534145,74.5673317 C249.118933,82.4476309 247.641377,90.2294264 240.844618,97.1246883 C230.895741,107.17207 209.914444,104.413965 204.890753,91.3129676 C199.670055,77.6209476 198.48801,62.3528678 193.858334,48.3653367 C190.509207,38.2194514 185.387013,28.2705736 179.082773,19.5037406 C174.157586,12.6084788 167.656339,15.4650873 166.868309,23.4438903 C164.405716,50.138404 160.56407,77.0299252 176.127661,101.754364 C178.688758,105.793017 179.082773,111.112219 180.461825,115.938903 C179.214111,116.661264 177.966397,117.383624 176.718683,118.105985 C166.080279,109.437656 155.540379,100.86783 142.242374,90.032419 C150.319681,90.4264339 154.456838,90.7219451 158.791003,90.9189526 C158.889506,60.1857855 160.662574,30.1421446 169.921925,0 C179.082773,7.58478803 185.978035,15.8591022 193.365816,23.8379052 C205.186264,36.446384 217.302224,48.7593516 229.319681,61.2693267 L228.827162,60.776808 Z" id="&lt;Path&gt;" fill-rule="nonzero"></path>
                <path d="M229.319681,61.2693267 C219.764818,46.7892768 218.779781,31.7182045 228.039132,12.0174564 C243.011701,37.0374065 257.984269,62.0901912 272.956838,87.1758105 C269.542042,84.8117207 266.127245,82.4476309 262.712449,80.0835411 C251.417353,73.6479634 240.122258,67.2123857 228.827162,60.776808 C229.02417,61.1051538 229.188343,61.2693267 229.319681,61.2693267 L229.319681,61.2693267 Z" id="&lt;Path&gt;" fill-rule="nonzero"></path>
                <path d="M320.14013,249.805486 C298.140961,241.202826 276.174627,232.567332 254.241127,223.899002 C245.572798,223.603491 242.125167,226.755611 240.943122,228.03616 C234.343372,235.128429 237.19998,252.563591 251.68003,269.013716 C252.369556,281.425187 254.930653,297.776808 262.416938,315.408978 C267.440628,327.229426 273.153845,335.996259 276.896988,341.216958 C288.02791,356.780549 300.340878,366.926434 309.009207,373.13217 C306.44811,372.836658 302.901975,372.245636 298.961825,370.866584 C288.02791,367.320449 281.822175,361.311721 281.329656,361.705736 C280.64013,362.592269 308.02417,379.633416 320.829656,405.736908 C330.975541,426.225686 329.694993,447.600998 327.035392,462.573566 C322.405716,449.866584 313.83589,431.446384 297.681277,413.814214 C276.404469,390.567332 261.924419,390.665835 236.904469,365.645885 C211.293496,339.837905 200.261077,313.340399 199.473047,313.832918 C198.783521,314.226933 208.929407,337.572319 228.334643,364.266833 C258.181277,405.736908 280.049107,409.874065 285.368309,436.568579 C291.278534,466.809227 280.935641,491.238155 276.601476,500.004988 C275.714943,491.927681 273.54786,479.122195 267.73614,464.543641 C260.939382,447.699501 253.059082,437.65212 228.334643,405.835411 C224.098983,400.417706 213.362075,386.528678 196.813446,365.25187 C196.813446,365.186201 196.813446,365.153367 196.813446,365.153367 C196.813446,365.153367 219.567811,398.250623 231.486763,437.356608 C237.889506,458.633416 245.080279,482.077307 233.358334,493.405237 C224.098983,502.467581 207.353347,499.512469 199.965566,497.837905 C202.034145,495.276808 205.087761,491.041147 206.762324,485.229426 C209.421925,475.674564 207.156339,466.907731 204.102723,458.830424 C193.956838,431.741895 168.444369,393.916459 165.193746,389.188279 C153.964319,398.15212 144.901975,399.629676 139.188758,399.629676 C122.443122,399.629676 107.963072,383.967581 76.1463641,356.28803 C74.2747931,354.71197 72.6002295,353.037406 70.6301547,351.067332 C54.4755412,334.321696 38.222424,309.498753 28.9630724,271.673317 C33.8225902,246.193682 38.6492735,220.714048 43.4431222,195.234414 C63.9319003,154.749377 83.5341447,138.299252 98.4082095,131.009975 C104.022923,128.25187 118.69998,122.046135 122.541626,108.846633 C125.102723,99.7842893 120.473047,94.4650873 123.42816,87.6683292 C126.087761,81.659601 134.460579,74.8628429 161.746115,73.8778055 C171.596489,109.339152 179.575292,117.317955 185.190005,117.219451 C189.327162,117.219451 191.494244,112.885287 200.8521,105.497506 C209.618933,98.7007481 217.893247,94.563591 223.704968,92.0024938 C225.478035,80.5103907 227.251102,69.0182876 229.02417,57.5261845 C240.384934,63.5020781 251.712865,69.4779717 263.00796,75.4538653 C272.595658,84.5162095 282.183355,93.6113882 291.771052,102.739401 C295.711202,116.726933 299.618517,130.747298 303.492998,144.800499 C302.803471,143.51995 298.075292,135.147132 288.520429,133.472569 C279.162574,131.896509 268.622673,137.412718 266.751102,145.09601 C265.175042,151.597257 270.297237,157.704489 274.729905,162.826683 C283.595242,173.26808 293.642623,178.094763 302.803471,182.428928 C340.727412,200.356608 347.721177,201.735661 354.714943,210.798005 C361.117686,219.072319 363.383272,228.430175 364.171302,236.310474 C349.527079,240.775977 334.850022,245.274314 320.14013,249.805486 L320.14013,249.805486 Z" id="&lt;Path&gt;" fill-rule="nonzero"></path>
            </g>
            <path d="M95.1575861,343.876559 C121.753596,371.359102 140.863322,398.644638 146.182524,395.394015 C151.797237,391.946384 135.051601,358.356608 139.090254,356.189526 C143.128908,354.219451 161.746115,383.869077 165.193746,389.188279 C191.198733,430.461347 194.744868,449.669576 195.828409,459.125935 C196.813446,468.188279 198.586514,485.918953 189.327162,491.927681 C184.401975,495.178304 178.196239,493.799252 174.748609,492.912718 C142.242374,484.933915 107.273546,461.09601 77.9194315,443.168329 C64.424419,434.894015 63.7348928,435.091022 46.6937457,424.551122 C10.0503542,401.698254 0.199980096,393.916459 0.199980096,393.817955 C0.396987577,393.620948 59.0067133,426.32419 107.963072,446.123441 C113.676289,448.487531 132.983022,456.072319 152.979282,449.472569 C157.510454,447.995012 166.868309,444.941397 168.050354,438.735661 C169.429407,431.249377 157.608958,425.142145 140.075292,411.05611 C114.956838,390.764339 98.4082095,370.177057 97.1276609,371.359102 C96.4381347,372.048628 103.037885,377.761845 105.00796,388.104738 C106.387013,395 105.106464,401.402743 103.333397,406.32793 C97.7186833,389.976309 89.5428729,380.913965 83.2386335,375.791771 C72.403222,366.82793 66.0004788,368.600998 55.7560898,358.65212 C46.3982345,349.589776 42.5565886,339.44389 38.7149427,329.593516 C33.9867631,317.280549 34.2822744,311.567332 30.3421247,293.639651 C28.3720499,284.872818 25.2199302,272.165835 20.0977357,256.700748 C49.6488579,295.412718 76.0478604,324.372818 95.1575861,343.876559 L95.1575861,343.876559 Z" id="&lt;Path&gt;" fill-rule="nonzero"></path>
        </g>
    </g>
</svg>