<?xml version="1.0" encoding="UTF-8"?>
<svg width="40px" height="31px" viewBox="0 0 40 31" version="1.1" xmlns="http://www.w3.org/2000/svg" xmlns:xlink="http://www.w3.org/1999/xlink">
    <title>mail-svgrepo-com</title>
    <g id="Page-2" stroke="none" stroke-width="1" fill="none" fill-rule="evenodd">
        <g id="mail-svgrepo-com" fill="#FFFFFF" fill-rule="nonzero">
            <path d="M37.2727344,0 L2.72726562,0 C1.18179688,0 0,1.34330876 0,3.09999112 L0,27.9000089 C0,29.6566912 1.18179688,31 2.72726562,31 L37.2727344,31 C38.8182031,31 40,29.6566912 40,27.9000089 L40,3.09999112 C40,1.34330876 38.8182031,0 37.2727344,0 Z M38.6363849,28.3769751 C38.6363849,29.0208411 38.2636208,29.4500237 37.7045948,29.4500237 L2.29544782,29.4500237 C1.7363417,29.4500237 1.36365767,29.0207489 1.36365767,28.3769751 L1.36365767,2.62307223 C1.36365767,1.97920621 1.73642178,1.55002368 2.29544782,1.55002368 L37.7045948,1.55002368 C38.2637009,1.55002368 38.6363849,1.97929843 38.6363849,2.62307223 L38.6363849,28.3769751 Z" id="Shape"></path>
            <path d="M35.9090909,25.3166667 L29.5454545,16.0166667 C29.2727202,15.6032931 28.9090625,15.3966788 28.5453906,15.7066868 C28.1817188,16.0166948 28.3636293,16.6366264 28.6363636,17.05 L35,26.35 C35.1817969,26.660008 35.4545455,26.8666667 36,26.6600657 C36.3636719,26.3499689 36.1818253,25.7299515 35.9090909,25.3166667 Z" id="Path"></path>
            <path d="M11.3636364,25.3166667 L5,16.0166667 C4.72726562,15.6032931 4.36360795,15.3966788 3.99993608,15.7066868 C3.6362642,16.0166948 3.81817472,16.6366264 4.09090909,17.05 L10.4545455,26.35 C10.6363423,26.660008 10.9090909,26.8666667 11.4545455,26.6600657 C11.8182173,26.3499689 11.6363707,25.7299515 11.3636364,25.3166667 Z" id="Path-Copy" transform="translate(7.727252, 21.150313) scale(-1, 1) translate(-7.727252, -21.150313) "></path>
            <path d="M36.1817969,4.44329988 C35.8182031,4.02992629 35.3636719,4.33999201 35,4.65 L21.8181818,17.05 C20.8181818,17.980024 19.1818182,17.980024 18.1818182,17.05 L5,4.65 C4.63632813,4.23662641 4.0909375,4.02992629 3.81820313,4.44329988 C3.54546875,4.85667347 3.72723722,5.37332534 4.09090909,5.68333333 L17.2727273,18.0833333 C18.0909304,18.9099917 18.9091406,19.1166667 20,19.1166667 C21.0908594,19.1166667 21.9091477,18.8066261 22.7272727,18.0833333 L35.9090909,5.68333333 C36.2727628,5.26995974 36.5454688,4.85658467 36.1817969,4.44329988 Z" id="Path"></path>
        </g>
    </g>
</svg>