<?xml version="1.0" encoding="UTF-8"?>
<svg width="39px" height="32px" viewBox="0 0 39 32" version="1.1" xmlns="http://www.w3.org/2000/svg" xmlns:xlink="http://www.w3.org/1999/xlink">
    <title>twitter</title>
    <defs>
        <path d="M39,3.78316724 C37.5662553,4.43091884 36.0217304,4.86127605 34.4088972,5.05318877 C36.0613383,4.05361769 37.3251347,2.46950681 37.9282714,0.583739659 C36.3837465,1.5062502 34.6672625,2.18311493 32.8485291,2.54509014 C31.386084,0.975566596 29.3089853,0 27.0080106,0 C22.5897201,0 19.0127011,3.61519745 19.0127011,8.07522942 C19.0127011,8.70476223 19.0818016,9.32050786 19.2171387,9.91446481 C12.5691068,9.57421673 6.67539186,6.35952476 2.72989763,1.46845854 C2.02069927,2.70242897 1.64725203,4.10392456 1.64744447,5.53075478 C1.64744447,8.33109253 3.05516981,10.8079238 5.20283146,12.2524394 C3.89223685,12.2131705 2.65939559,11.8438709 1.57688149,11.2455439 L1.57688149,11.3466089 C1.57688149,15.2628471 4.33267659,18.5305951 7.99457833,19.2691944 C7.32380348,19.4531057 6.61561441,19.5549093 5.88585428,19.5549093 C5.36912366,19.5549093 4.87103921,19.5011146 4.37587965,19.4102669 C5.39855537,22.6176344 8.35086653,24.955609 11.8472682,25.0239295 C9.10585384,27.1932572 5.66277046,28.4850674 1.90934402,28.4850674 C1.26160269,28.4850674 0.630435734,28.4450599 0,28.368738 C3.54819663,30.6681823 7.75132495,32 12.2668681,32 C26.9778477,32 35.0293395,19.6857645 35.0293395,9.0086343 C35.0293395,8.65386043 35.0214179,8.31004245 35.0070372,7.96253147 C36.569538,6.83352087 37.924006,5.40863969 38.9964048,3.78673714 L39,3.78310569 L39,3.78316724 Z" id="path-1"></path>
    </defs>
    <g id="Page-2" stroke="none" stroke-width="1" fill="none" fill-rule="evenodd">
        <g id="twitter">
            <mask id="mask-2" fill="white">
                <use xlink:href="#path-1"></use>
            </mask>
            <path stroke="#FFFFFF" stroke-width="1.17314022" d="M27.0080106,0.586570112 C29.1400034,0.586570112 31.0643929,1.49076198 32.4193808,2.94496043 C34.2710849,2.86003927 35.5281653,2.44267053 36.710005,1.89245816 C36.0768503,2.98488232 35.1797469,3.90136002 34.1053009,4.55129854 L34.1053009,4.55129854 L31.7824165,5.95642456 L34.4782048,5.63564988 C35.4509295,5.51990435 36.3996764,5.32047456 37.3155341,5.04206079 C36.5277162,5.95984492 35.6376425,6.78320518 34.6634984,7.48708895 C34.435016,8.32623851 34.4427694,8.66208524 34.4427694,9.0086343 C34.4427694,14.632098 32.151621,20.7209538 27.784564,25.1319249 C24.0712806,28.8825482 18.8532496,31.4134299 12.2668681,31.4134299 C8.84609544,31.4134299 5.60942474,30.6286514 2.71379264,29.2260902 L2.388,29.064 L2.76852012,29.0497716 C6.1827279,28.8755419 9.31906026,27.6684914 11.8925243,25.7300042 L12.2112551,25.4839056 C12.6917145,25.10371 13.1516434,24.6973008 13.5878889,24.266364 C13.0311177,24.3894677 12.4520008,24.449064 11.8587277,24.4374713 C10.2589606,24.4062115 8.78226755,23.8617409 7.58321513,22.9608273 C6.60191696,22.2235243 5.80629499,21.2477413 5.28102282,20.1190196 C5.48048517,20.1337098 5.68181544,20.1414794 5.88585428,20.1414794 C6.66927689,20.1414794 7.42956703,20.0323255 8.14967847,19.8348873 L8.14967847,19.8348873 L10.530116,19.1822254 L8.11055298,18.6942037 C6.39944159,18.3490754 4.90245004,17.4071604 3.83842242,16.0936284 C2.9676722,15.0186956 2.38700032,13.6946422 2.21621327,12.2438579 C3.13744034,12.5796175 4.13829159,12.8073763 5.18526416,12.8387464 C5.91604608,12.8606425 6.63012664,12.7856849 7.314251,12.6431316 C6.68326028,12.4320144 6.08258677,12.1372564 5.53019832,11.7657203 C3.53804945,10.4258025 2.23401458,8.1277102 2.23401458,5.53067566 C2.23387485,4.4946692 2.4459383,3.47303303 2.85404229,2.52909362 C6.88798939,7.15617103 12.6862722,10.1675511 19.1871572,10.5002682 C19.4589639,10.5141793 19.7300269,10.5233069 19.9992817,10.5276168 C19.9160813,10.2820104 19.8459685,10.0339492 19.7890502,9.7841509 C19.6633021,9.23227712 19.5992712,8.66014522 19.5992712,8.07522942 C19.5992712,6.00623848 20.428587,4.13294953 21.7709114,2.7772074 C23.1107659,1.42395998 24.9618839,0.586570112 27.0080106,0.586570112 Z"></path>
        </g>
    </g>
</svg>