<?xml version="1.0" encoding="UTF-8"?>
<svg width="1156px" height="487px" viewBox="0 0 1156 487" version="1.1" xmlns="http://www.w3.org/2000/svg" xmlns:xlink="http://www.w3.org/1999/xlink">
    <title>Wolf logos</title>
    <g id="Page-2" stroke="none" stroke-width="1" fill="none" fill-rule="evenodd">
        <g id="Wolf-logos-ai" fill="#FFFFFF">
            <g id="Layer-1" transform="translate(0.100000, 0.000000)">
                <g id="&lt;Group&gt;" transform="translate(841.685888, 0.000000)">
                    <path d="M85.2141119,118.3 C64.1141119,128.1 47.2141119,148 40.9141119,168.6 C28.2141119,210.6 62.7141119,252.1 56.8141119,255.7 C54.5141119,257.2 46.4141119,252 19.2141119,218.1 C17.5141119,219.9 15.3141119,222.5 13.7141119,226.1 C9.61411192,235.5 12.5141119,244.5 13.4141119,247.1 C8.91411192,238.4 3.01411192,223.6 3.31411192,205.1 C3.41411192,197 3.61411192,189.3 7.61411192,180.5 C13.4141119,167.8 23.6141119,160.8 21.6141119,157.7 C20.4141119,156 16.3141119,156.7 14.2141119,157.3 C6.41411192,159.7 1.21411192,169.5 0.414111925,181.9 C-0.185888075,176.7 -2.08588808,154.8 12.8141119,134 C26.7141119,114.6 46.2141119,108.9 51.6141119,107.5 C41.8141119,114.9 39.8141119,117.8 40.4141119,118.9 C41.5141119,120.9 52.2141119,118.6 60.1141119,112.1 C66.2141119,107.1 72.7141119,97.6 69.8141119,93.3 C67.4141119,89.5 57.9141119,89.8 47.3141119,94.7 C62.0141119,76.3 99.7141119,59.2 117.114112,62.7 C111.414112,66.8 104.814112,71.5 98.3141119,76.1 C108.414112,81.9 116.714112,86.6 126.014112,91.9 C114.414112,95.5 105.214112,98.4 94.5141119,101.7 C102.214112,105.1 107.614112,107.5 113.014112,109.8 C103.214112,112.8 93.7141119,114.4 85.2141119,118.3 L85.2141119,118.3 Z" id="&lt;Path&gt;" fill-rule="nonzero"></path>
                    <path d="M225.014112,139.3 C220.914112,136.1 216.514112,133.4 212.514112,130.1 C201.014112,120.7 189.714112,111.1 178.214112,101.7 C178.614112,101.166667 179.014112,100.666667 179.414112,100.2 C183.080779,101.333333 186.714112,102.5 190.314112,103.7 C190.780779,103.033333 191.214112,102.4 191.614112,101.8 C188.214112,96.8 184.914112,91.8 180.314112,85.2 C190.614112,90.2 198.714112,94.9 207.314112,98.2 C211.614112,99.9 216.914112,99.3 221.714112,99.8 C220.814112,94.4 221.414112,88 218.614112,83.8 C213.514112,76 206.514112,69.3 199.914112,61.7 C218.514112,68.8 235.014112,78.6 244.514112,96.3 C262.414112,129.5 267.214112,137.9 292.214112,155.1 C301.014112,161.2 315.014112,168.8 313.714112,176.6 C313.214112,180.1 309.614112,182.9 306.714112,185.1 C301.114112,189.6 295.114112,190.9 292.014112,191.4 C280.314112,195.6 270.414112,196.6 264.014112,196.8 C264.014112,196.8 238.914112,197.5 211.814112,182.4 C210.914112,181.9 210.014112,181.4 210.014112,181.4 C208.414112,180.2 206.914112,178.7 205.314112,177.5 C220.614112,179.2 234.814112,183.5 249.414112,185.8 C256.814112,187 265.014112,185.9 272.314112,183.8 C275.814112,182.8 281.014112,175.4 280.114112,173.7 C277.514112,168.6 272.814112,163.7 267.714112,161.2 C264.614112,159.6 257.614112,160.9 255.114112,163.5 C245.614112,173.5 234.714112,175.3 220.714112,171.4 C239.314112,162.4 240.414112,151.6 225.014112,139.3 L225.014112,139.3 Z M224.714112,119.7 C221.047445,119.566667 217.347445,119.4 213.614112,119.2 C221.014112,125.133333 228.414112,131.1 235.814112,137.1 C232.147445,131.3 228.447445,125.5 224.714112,119.7 L224.714112,119.7 Z" id="&lt;Compound-Path&gt;"></path>
                    <path d="M145.914112,94 C147.714112,90.9 147.914112,87.7 147.914112,86.9 C147.914112,86.9 147.914112,86.8 147.914112,86.7 C148.014112,82 142.614112,76 140.814112,74 C134.814112,67.2 132.914112,64.8 133.314112,64.4 C133.714112,63.9 137.414112,67.7 139.514112,66.6 C141.414112,65.5 140.814112,60.7 140.314112,57.4 C139.814112,53.6 138.514112,48 135.414112,41.6 C144.114112,56.2 153.014112,71.1 161.614112,85.6 C161.214112,85.7 159.714112,85.9 158.214112,86.2 C157.747445,87.0666667 157.247445,87.9333333 156.714112,88.8 C160.114112,91 163.514112,93.2 165.414112,94.4 C160.914112,98 157.314112,101.1 153.614112,104.1 C157.714112,106.5 161.614112,109.2 165.914112,111.4 C173.314112,115.2 180.914112,118.7 188.514112,122.3 C180.514112,122.9 173.314112,120.8 166.614112,121.8 C161.914112,122.5 157.814112,127.4 153.514112,130.5 C158.214112,132.1 163.014112,133.7 167.814112,135.1 C169.014112,135.5 170.614112,134.7 171.914112,134.8 C182.914112,136.2 194.014112,137.6 205.014112,139.1 C188.514112,146.9 169.314112,141.8 154.814112,157.3 C165.714112,160.5 175.314112,163.3 187.714112,166.9 C176.114112,168.2 166.714112,167.6 158.614112,170.6 C150.614112,173.6 144.014112,180.2 136.814112,185.2 C131.814112,172.9 134.614112,160.5 139.414112,147.9 C140.714112,144.4 139.814112,137.2 137.714112,136.1 C134.214112,134.3 128.514112,135.2 124.414112,136.7 C120.714112,138.2 117.914112,142 114.714112,144.8 C114.314112,144.533333 113.880779,144.233333 113.414112,143.9 C117.314112,137.1 121.114112,130.3 125.914112,121.9 C118.914112,123.6 113.814112,124.9 108.714112,126.1 C108.247445,125.433333 107.780779,124.766667 107.314112,124.1 C113.714112,119 120.114112,113.8 127.214112,108 C122.814112,105.5 120.014112,103.8 115.214112,101 C127.714112,101.1 139.614112,104.4 145.914112,94 L145.914112,94 Z" id="&lt;Path&gt;" fill-rule="nonzero"></path>
                    <path d="M179.114112,46.9 C182.714112,50.5 186.114112,54.2 189.814112,57.6 C196.214112,63.7 195.314112,70 190.014112,75.8 C182.414112,84.2 165.314112,82.8 160.914112,72.4 C156.214112,61.5 154.714112,49.3 150.514112,38.2 C147.414112,30.1 142.914112,22.2 137.614112,15.5 C133.314112,10 128.214112,12.6 127.914112,19 C126.814112,40.6 124.614112,62.4 138.114112,81.8 C140.314112,84.9 140.814112,89.3 142.014112,93.1 C141.080779,93.7 140.114112,94.3333333 139.114112,95 C130.214112,88.4 121.414112,81.8 110.314112,73.5 C116.914112,73.6 120.214112,73.7 123.714112,73.7 C122.714112,49 123.114112,24.6 129.514112,-1.13686838e-13 C137.114112,5.8 143.014112,12.3 149.214112,18.4 C159.214112,28.2 169.414112,37.7 179.514112,47.3 L179.114112,46.9 Z" id="&lt;Path&gt;" fill-rule="nonzero"></path>
                    <path d="M179.514112,47.3 C171.314112,36 170.014112,23.9 176.714112,7.7 C189.647445,27.3 202.614112,46.9333333 215.614112,66.6 C212.747445,64.8666667 209.880779,63.1 207.014112,61.3 C197.747445,56.5 188.447445,51.7 179.114112,46.9 C179.247445,47.1666667 179.380779,47.3 179.514112,47.3 L179.514112,47.3 Z" id="&lt;Path&gt;" fill-rule="nonzero"></path>
                    <path d="M259.314112,196 C241.314112,189.866667 223.314112,183.7 205.314112,177.5 C198.314112,177.6 195.614112,180.2 194.714112,181.3 C189.614112,187.2 192.514112,201.1 204.814112,213.9 C205.814112,223.9 208.414112,237 215.114112,250.9 C219.514112,260.3 224.514112,267.1 227.614112,271.2 C237.114112,283.3 247.414112,291.1 254.614112,295.8 C252.514112,295.6 249.714112,295.3 246.414112,294.3 C237.514112,291.8 232.314112,287.2 232.014112,287.6 C231.414112,288.3 254.114112,301.1 265.314112,321.6 C274.214112,337.8 273.914112,355 272.314112,367.2 C268.114112,357.2 260.614112,342.6 247.014112,329 C229.014112,311 217.314112,311.6 196.314112,292.3 C174.714112,272.4 164.914112,251.5 164.314112,251.8 C163.814112,252.2 172.814112,270.6 189.314112,291.5 C214.914112,323.9 232.614112,326.4 237.814112,347.7 C243.614112,371.9 236.214112,391.9 233.014112,399.1 C232.014112,392.7 229.814112,382.4 224.614112,370.9 C218.614112,357.6 211.814112,349.7 190.814112,324.9 C187.214112,320.7 178.114112,310 164.014112,293.4 C163.947445,293.333333 163.914112,293.3 163.914112,293.3 C164.014112,293.3 183.514112,319.1 194.414112,350.3 C200.414112,367.1 207.014112,385.8 198.014112,395.4 C190.814112,403 177.214112,401.2 171.114112,400.1 C172.714112,398 175.014112,394.4 176.214112,389.7 C178.014112,381.9 175.914112,374.9 173.214112,368.6 C164.014112,347 142.114112,317.5 139.314112,313.8 C130.614112,321.4 123.314112,322.9 118.814112,323.1 C105.314112,323.7 93.0141119,311.6 66.4141119,290.4 C64.9141119,289.2 63.5141119,287.9 61.8141119,286.4 C48.2141119,273.5 34.2141119,254.1 25.5141119,223.9 C28.4474453,203.233333 31.4141119,182.533333 34.4141119,161.8 C49.5141119,128.4 64.7141119,114.5 76.4141119,108.1 C80.9141119,105.7 92.5141119,100.2 95.1141119,89.4 C96.9141119,82 93.0141119,77.9 95.1141119,72.3 C97.0141119,67.4 103.514112,61.6 125.414112,59.9 C134.714112,88.1 141.314112,94.2 145.914112,94 C149.214112,93.8 150.914112,90.2 158.114112,84 C164.914112,78.2 171.414112,74.5 176.014112,72.3 C177.080779,62.9666667 178.114112,53.6333333 179.114112,44.3 C188.447445,48.7 197.780779,53.1 207.114112,57.5 C215.180779,64.5 223.247445,71.5 231.314112,78.5 C234.914112,89.7 238.547445,100.866667 242.214112,112 C241.614112,111 237.514112,104.4 229.714112,103.4 C222.114112,102.5 213.814112,107.3 212.614112,113.6 C211.614112,118.8 215.914112,123.6 219.614112,127.6 C227.114112,135.6 235.414112,139.2 242.914112,142.3 C274.114112,155.4 279.814112,156.3 285.714112,163.4 C291.214112,169.8 293.414112,177.3 294.314112,183.6 C282.647445,187.733333 270.980779,191.866667 259.314112,196 L259.314112,196 Z" id="&lt;Path&gt;" fill-rule="nonzero"></path>
                </g>
                <path d="M1038.7,204.5 C1042.7,210.2 1048.8,217.6 1057.4,224.7 C1068,233.3 1078.4,238.1 1085.7,240.8 C1073.4,244.2 1065.2,242.6 1060,240.5 C1056.4,238.9 1054,237 1053,237.9 C1051.1,239.6 1057.2,251.2 1065.9,258.8 C1073.5,265.5 1081.8,268 1086.8,269.1 C1084.8,270.1 1080.7,271.6 1075.4,271.3 C1067.6,270.9 1062.4,266.5 1060.8,265.1 C1055.7,260.6 1043.2,248.3 1039.1,228.3 C1037.1,218.6 1037.7,210.2 1038.7,204.5 L1038.7,204.5 Z" id="&lt;Path&gt;" fill-rule="nonzero"></path>
                <path d="M923,279.8 C945.4,300.9 961.8,322.3 966,319.4 C970.4,316.5 955.7,290 958.9,288.1 C962,286.4 978.1,309.6 981,313.8 C1003.4,346.1 1007,361.5 1008.2,369.1 C1009.3,376.3 1011.4,390.5 1004.1,395.7 C1000.3,398.5 995.2,397.6 992.4,397 C965.9,391.7 936.9,373.7 912.6,360.3 C901.4,354.1 900.9,354.3 886.8,346.4 C856.5,329.3 848.3,323.4 848.3,323.3 C848.4,323.1 896.8,347.4 937,361.7 C941.6,363.3 957.4,368.8 973.3,362.8 C976.9,361.4 984.4,358.6 985.1,353.6 C985.9,347.5 976.2,343 961.6,332.3 C940.6,316.8 926.5,300.8 925.6,301.8 C925,302.4 930.6,306.8 932.6,315 C933.9,320.6 933,325.7 931.8,329.7 C926.7,316.7 919.8,309.8 914.6,305.8 C905.5,299 900.4,300.7 891.8,293 C884,286.1 880.5,278 877.1,270.2 C872.8,260.4 872.8,255.8 869,241.6 C867.1,234.6 864.1,224.4 859.4,212.2 C884.6,242.3 907,264.6 923,279.8 L923,279.8 Z" id="&lt;Path&gt;" fill-rule="nonzero"></path>
                <polygon id="&lt;Path&gt;" fill-rule="nonzero" points="1114.4 486.2 46.1 486.2 46.1 474.1 1114.4 474.1"></polygon>
                <polygon id="&lt;Path&gt;" fill-rule="nonzero" points="967.9 64.9 0 64.9 0 51.9 967.9 51.9"></polygon>
                <polygon id="&lt;Path&gt;" fill-rule="nonzero" points="1120.6 66 1048.8 66 1048.8 57.5 1120.6 57.5"></polygon>
                <path d="M1119.7,74 C1119.5,86.6666667 1119.3,99.3333333 1119.1,112 C1118.3,107.8 1116.7,101.7 1113.7,94.6 C1111.2,88.7 1109.8,85.3 1106.7,82 C1104.6,79.9 1099.7,75.4 1090.3,73.7 C1100.1,73.8333333 1109.9,73.9333333 1119.7,74 Z" id="&lt;Path&gt;" fill-rule="nonzero"></path>
                <path d="M866.1,72 C862.3,72.7 855.5,74.7 850.3,80.5 C847.5,83.8 846.1,87 844.8,91.1 C842.6,97.7 840,107.6 838.8,120.7 C839.066667,104.5 839.333333,88.2666667 839.6,72 C848.4,72 857.233333,72 866.1,72 Z" id="&lt;Path&gt;" fill-rule="nonzero"></path>
            </g>
            <g id="Layer-2" transform="translate(0.000000, 70.300000)" fill-rule="nonzero">
                <g id="&lt;Group&gt;">
                    <path d="M558.7,0 C591.433333,0.133333333 624.166667,0.266666667 656.9,0.4 C676.366667,46.1333333 695.866667,91.8666667 715.4,137.6 C715.4,93.2 715.4,48.8 715.4,2.2 C753.9,2.2 789.6,2.2 826.2,2.2 C825.2,82.4666667 824.233333,162.733333 823.3,243 C735.1,204.2 646.866667,165.4 558.6,126.6 C558.6,127.8 558.6,129 558.6,130.2 C647.466667,172.8 736.366667,215.4 825.3,258 C824.966667,265.066667 824.633333,272.133333 824.3,279.2 C735.833333,241.066667 647.333333,202.933333 558.8,164.8 C558.8,166.4 558.8,167.966667 558.8,169.5 C647.933333,212.766667 737.066667,256.033333 826.2,299.3 C826.2,306.3 826.233333,313.333333 826.3,320.4 C737.1,281.4 647.866667,242.433333 558.6,203.5 C558.666667,204.166667 558.7,204.866667 558.7,205.6 C647.9,247.866667 737.1,290.133333 826.3,332.4 C826.233333,354 826.2,375.6 826.2,397.2 C793.333333,397.2 760.5,397.2 727.7,397.2 C709.033333,359.8 690.366667,322.366667 671.7,284.9 C670.5,322.3 669.3,359.7 668.1,397.1 C630.6,397.1 596,397.1 558.7,397.1 C558.7,266 558.7,134.7 558.7,0 L558.7,0 Z" id="&lt;Path&gt;"></path>
                    <path d="M48.5,396 C32.3666667,264.466667 16.2,132.9 2.84217094e-14,1.3 C36.6,1.3 74.4,1.3 115.2,1.3 C119.8,47.8 124.3,94 128.8,140.2 C130.2,140.2 131.6,140.233333 133,140.3 C140,94 146.9,47.7 153.9,0.7 C189.6,0.7 222.3,0.7 258.4,0.7 C264.3,52.7 270.3,104.1 276.2,155.5 C277.733333,155.566667 279.3,155.6 280.9,155.6 C286.233333,105 291.566667,54.3666667 296.9,3.7 C327.766667,3.23333333 358.6,2.73333333 389.4,2.2 C368.333333,133 347.3,263.8 326.3,394.6 C292.5,394.6 258.7,394.6 224.9,394.6 C215.566667,359.333333 206.266667,324.066667 197,288.8 C188.666667,324.066667 180.333333,359.333333 172,394.6 C130.866667,395.066667 89.7,395.533333 48.5,396 L48.5,396 Z" id="&lt;Path&gt;"></path>
                    <path d="M409.1,1.3 C448.8,1.3 486.8,1.3 526.4,1.3 C526.4,38.6333333 526.4,75.9666667 526.4,113.3 C508.4,104.566667 490.4,95.8333333 472.4,87.1 C490.4,97.0333333 508.4,106.933333 526.4,116.8 C526.4,129.466667 526.4,142.133333 526.4,154.8 C490.133333,137.466667 453.866667,120.1 417.6,102.7 C453.866667,121.366667 490.133333,140.033333 526.4,158.7 C526.333333,169.966667 526.266667,181.233333 526.2,192.5 C503.066667,181.033333 479.933333,169.533333 456.8,158 C480,170.6 503.2,183.233333 526.4,195.9 C526.4,262.9 526.4,329.933333 526.4,397 C487.333333,397 448.233333,397 409.1,397 C409.1,266.3 409.1,135.6 409.1,1.3 L409.1,1.3 Z" id="&lt;Path&gt;"></path>
                </g>
                <path d="M848.4,266.1 C890.9,288.4 921.9,306 944.2,319 C944.2,319 982,341.1 1028.7,345.5 C1031,345.7 1036.4,346.1 1041.5,343.1 C1057.9,333.5 1052.9,299.5 1052,294 C1057.7,301.7 1064.4,313.6 1064.8,328.4 C1065.2,339 1062.1,346.3 1064.8,347.5 C1068.5,349.2 1081.8,337.5 1088.1,322.6 C1096.8,302.3 1090.4,281.5 1086.2,271.2 C1092.9,278 1102.3,289.3 1108.6,305.7 C1111.5,313.3 1113,320.3 1113.9,326.2 C1113.7,349.533333 1113.46667,372.866667 1113.2,396.2 C1026.73333,396.333333 940.233333,396.433333 853.7,396.5 C853.233333,377.9 852.8,359.3 852.4,340.7 C872.333333,348.366667 892.266667,356 912.2,363.6 C891.866667,351.866667 871.5,340.133333 851.1,328.4 C850.833333,321.533333 850.566667,314.633333 850.3,307.7 C885.5,319.966667 920.733333,332.233333 956,344.5 C920.4,325.766667 884.8,307.033333 849.2,288.3 C848.933333,280.9 848.666667,273.5 848.4,266.1 L848.4,266.1 Z" id="&lt;Path&gt;"></path>
            </g>
        </g>
    </g>
</svg>