<?xml version="1.0" encoding="UTF-8"?>
<svg width="32px" height="32px" viewBox="0 0 32 32" version="1.1" xmlns="http://www.w3.org/2000/svg" xmlns:xlink="http://www.w3.org/1999/xlink">
    <title>instagram-svgrepo-com</title>
    <g id="Page-2" stroke="none" stroke-width="1" fill="none" fill-rule="evenodd">
        <g id="instagram-svgrepo-com" fill="#FFFFFF" fill-rule="nonzero">
            <g id="Group">
                <path d="M25.2427227,0 L6.75708238,0 C3.03120451,0 0,3.03120451 0,6.75708238 L0,25.2429176 C0,28.9687955 3.03120451,32 6.75708238,32 L25.2429176,32 C28.9687955,32 32,28.9687955 32,25.2429176 L32,6.75708238 C32,3.03120451 28.9686006,0 25.2427227,0 Z M30.3728582,25.2427227 C30.3728582,28.0714116 28.0714116,30.3726633 25.2427227,30.3726633 L6.75708238,30.3726633 C3.92839348,30.3726633 1.62714177,28.0714116 1.62714177,25.2427227 L1.62714177,6.75708238 C1.62714177,3.92839348 3.92839348,1.62714177 6.75708238,1.62714177 L25.2429176,1.62714177 C28.0716065,1.62714177 30.3728582,3.92839348 30.3728582,6.75708238 L30.3728582,25.2427227 L30.3728582,25.2427227 Z" id="Shape"></path>
                <path d="M15.9999025,7.59316583 C11.3643612,7.59316583 7.59316583,11.3643612 7.59316583,15.9999025 C7.59316583,20.6354439 11.3643612,24.4066393 15.9999025,24.4066393 C20.6354439,24.4066393 24.4066393,20.6354439 24.4066393,15.9999025 C24.4066393,11.3643612 20.6354439,7.59316583 15.9999025,7.59316583 Z M15.9999025,22.7794975 C12.2616476,22.7794975 9.2203076,19.73806 9.2203076,15.9999025 C9.2203076,12.2617451 12.2617451,9.2203076 15.9999025,9.2203076 C19.73806,9.2203076 22.7794975,12.2617451 22.7794975,15.9999025 C22.7794975,19.73806 19.7381575,22.7794975 15.9999025,22.7794975 Z" id="Shape"></path>
                <circle id="Oval" cx="24.6777646" cy="6.23724684" r="2.16948987"></circle>
            </g>
        </g>
    </g>
</svg>