<?xml version="1.0" encoding="UTF-8"?>
<svg width="35px" height="35px" viewBox="0 0 35 35" version="1.1" xmlns="http://www.w3.org/2000/svg" xmlns:xlink="http://www.w3.org/1999/xlink">
    <title>facebook-round-color</title>
    <g id="Page-2" stroke="none" stroke-width="1" fill="none" fill-rule="evenodd" fill-opacity="0">
        <g id="facebook-round-color" fill="#FFFFFF" fill-rule="nonzero" stroke="#FFFFFF" stroke-width="1.39354839">
            <path d="M17.5,0.696774194 C22.1394999,0.696774194 26.3397413,2.58916266 29.3802023,5.64821239 C32.4220863,8.70869378 34.3032258,12.9368105 34.3032258,17.6069911 C34.3032258,21.796619 32.7891521,25.6306582 30.2808014,28.5849499 C27.9069406,31.3808419 24.6427563,33.3891931 20.9291855,34.1642421 L20.9291855,34.1642421 L20.9291855,23.3969608 L24.9106945,23.3969608 L25.8984737,16.9136907 L20.9312571,16.9136907 L20.9312571,14.3076343 C20.9312571,13.7392117 21.055876,13.162135 21.46631,12.7663892 C21.8104428,12.4345721 22.3422433,12.2545971 23.0863552,12.2545971 L23.0863552,12.2545971 L25.9893599,12.2545971 L25.9893599,6.65077212 C25.6303245,6.57675005 25.4116752,6.53885451 25.4116752,6.53885451 C25.4116752,6.53885451 23.3482464,6.18122811 21.3752318,6.18122811 C19.128072,6.18122811 17.2900267,6.89936179 16.0158414,8.21990895 C14.7890857,9.4913007 14.0687429,11.3391649 14.0687429,13.7282147 L14.0687429,13.7282147 L14.0687429,16.910217 L9.62520821,16.910217 L9.62520821,23.393487 L14.0687429,23.393487 L14.0687429,34.1641999 C10.3560373,33.3890939 7.092319,31.3806604 4.71873217,28.5846989 C2.21075926,25.6304377 0.696774194,21.7964987 0.696774194,17.6069911 C0.696774194,12.9368105 2.57791368,8.70869378 5.61979766,5.64821239 C8.66025868,2.58916266 12.8605001,0.696774194 17.5,0.696774194 Z" id="Path"></path>
        </g>
    </g>
</svg>