<?xml version="1.0" encoding="UTF-8"?>
<svg width="30px" height="35px" viewBox="0 0 30 35" version="1.1" xmlns="http://www.w3.org/2000/svg" xmlns:xlink="http://www.w3.org/1999/xlink">
    <title>tiktok-line</title>
    <g id="Page-2" stroke="none" stroke-width="1" fill="none" fill-rule="evenodd">
        <g id="tiktok-line" fill="#FFFFFF">
            <path d="M22.2961394,0.829286039 C22.5564049,3.00222541 23.2747379,4.71328394 24.4407276,5.8994779 C25.5754855,7.05417998 27.1683107,7.73650393 29.1983821,7.86247143 C29.6564495,7.89396331 30,8.27186581 30,8.72324935 L30,14.0348789 C30,14.507257 29.6252176,14.8956568 29.1567396,14.8956568 C27.7408949,15.0321216 26.4187459,14.864165 25.0965968,14.4442733 C24.2012833,14.1608464 23.3059698,13.7619493 22.3794244,13.2685766 L22.3794244,21.7083991 C22.3794244,25.7078672 21.0676859,28.9095412 19.0792571,31.1559616 C17.6217699,32.8040364 15.8103216,33.9482411 13.8635352,34.5360895 C11.9167488,35.1239378 9.84503494,35.165927 7.88783792,34.5885759 C5.48298413,33.8852574 3.25511093,32.2686745 1.67269632,29.6548489 C0.662865939,27.9857795 0.0798710821,25.9702995 0.00699672501,23.9233276 C-0.0554670097,22.0338151 0.298494154,20.1023135 1.14175457,18.3597631 C1.99542561,16.6067154 3.32798529,15.0321216 5.20189733,13.8774195 C7.03416688,12.743712 9.38696755,12.0193989 12.3019418,11.914426 C12.7704198,11.8934314 13.1660235,12.2713339 13.1868447,12.743712 L13.1868447,18.3702604 C13.1868447,18.8216439 12.8432942,19.1890491 12.4060481,19.2310383 C12.0000338,19.3045193 11.5836089,19.3884976 11.167184,19.4829733 C10.7611697,19.5774489 10.3655661,19.6929191 9.98037303,19.8293839 C8.88725767,20.1967891 8.04399726,20.7216537 7.54428738,21.4249722 C7.05498812,22.1072962 6.8571863,23.0100633 7.02375626,24.1857599 C7.24237933,25.770851 8.42919029,26.9675422 9.83462432,27.4504176 C10.4176192,27.6498662 11.0318459,27.7338445 11.6252514,27.6708607 C12.2082462,27.607877 12.7704198,27.4084285 13.2701297,27.0515205 C14.5402257,26.1382562 15.4043073,24.1647653 15.1440418,20.7951347 L15.1440418,0.860777914 C15.1440418,0.38839979 15.5292348,0 15.9977128,0 L21.4424683,0 C21.9005357,0 22.2649075,0.356907916 22.2961394,0.808291456 L22.2961394,0.829286039 Z M23.2226848,7.10666644 C21.921357,5.78400769 21.0780966,3.97847353 20.7033142,1.7530477 L16.8513838,1.7530477 L16.8513838,20.7426483 C17.1532919,24.7841055 15.9664809,27.2404718 14.2591389,28.4791522 C13.509574,29.0250114 12.6663136,29.3294328 11.802232,29.4239084 C10.9589715,29.5183841 10.0844793,29.4029139 9.2724507,29.119487 C7.30484306,28.437163 5.64955409,26.7366018 5.3268248,24.4586895 C5.0977911,22.8106147 5.41010978,21.487956 6.15967459,20.4487241 C6.88841816,19.4304868 8.02317601,18.716671 9.44943129,18.2337956 C9.87626681,18.0868335 10.3239236,17.960866 10.781991,17.8453958 C11.0214353,17.782412 11.250469,17.7299256 11.4899133,17.6879364 L11.4899133,13.7199602 C9.30368257,13.9089114 7.51305551,14.507257 6.10762148,15.3785322 C4.53561749,16.3547804 3.41127027,17.6669418 2.69293732,19.1470599 C1.97460437,20.6376754 1.66228569,22.2857501 1.72474943,23.8918358 C1.78721316,25.6448835 2.27651242,27.3664393 3.14059408,28.7835737 C4.48356438,30.9985022 6.35747642,32.3736474 8.37713717,32.9509984 C10.0116049,33.4233766 11.7501788,33.3918847 13.3950572,32.898512 C15.0399355,32.394642 16.5807077,31.4288912 17.8195717,30.0222541 C19.5477351,28.0697578 20.6824929,25.266981 20.6824929,21.7188964 L20.6824929,11.7989558 C20.6824929,11.6519937 20.7241354,11.4945343 20.8074204,11.3580695 C21.0468647,10.9486752 21.5778064,10.8122104 21.9838207,11.0641454 C23.2747379,11.840945 24.4615489,12.4392906 25.6275386,12.8066958 C26.5124415,13.0901227 27.3973444,13.2265875 28.3030685,13.2265875 L28.3030685,9.52104351 C26.2105334,9.24811393 24.5240126,8.42932518 23.243506,7.12766102 L23.2226848,7.10666644 Z" id="Shape"></path>
        </g>
    </g>
</svg>