<svg version="1.2" xmlns="http://www.w3.org/2000/svg" viewBox="0 0 2040 500" width="2040" height="500">
	<title>illustration-section-01</title>
	<style>
		.s0 { fill: #ffffff } 
	</style>
	<g id="Page-2" style="opacity: .5">
		<g id="wolflogo">
			<g id="&lt;Group&gt;">
				<path id="&lt;Path&gt;" class="s0" d="m108.9 144.1c-26.7 11-48.8 34.8-57.6 60-18.1 51.3 22.4 104.5 14.9 108.7-2.9 1.7-12.8-5.2-44.5-48.6-2.2 2.1-5.1 5.2-7.3 9.6-5.6 11.5-2.4 22.7-1.4 25.9-5.2-11-11.8-29.6-10.3-52.6 0.6-9.9 1.2-19.5 6.7-30.2 7.9-15.4 20.8-23.4 18.4-27.4-1.3-2.2-6.5-1.7-9.1-0.9-9.8 2.6-16.8 14.3-18.4 29.8-0.4-6.5-1.5-33.8 18-58.7 18.3-23.4 42.7-29.4 49.5-30.9-12.6 8.7-15.1 12.3-14.6 13.6 1.3 2.6 14.8 0.3 24.9-7.4 7.7-5.9 16.4-17.2 13.1-22.7-2.9-4.8-14.6-4.9-28 0.5 19.1-22 66.9-41.1 88.2-35.8-7.3 4.8-15.7 10.2-24.1 15.6 12.2 7.7 22.3 14 33.4 21-14.5 3.8-26 6.9-39.4 10.5 9.3 4.5 15.9 7.8 22.5 11-12.4 3.1-24.3 4.6-34.9 9z"/>
				<path id="&lt;Compound-Path&gt;" fill-rule="evenodd" class="s0" d="m280.9 177.7c-4.8-4.2-10.3-7.8-15-12.1-13.7-12.2-27.3-24.7-40.9-37.1q0.7-0.8 1.5-1.7 6.7 2.4 13.3 4.9 0.9-1.2 1.8-2.4c-4-6.3-7.9-12.7-13.1-21.1 12.4 6.9 22.2 13.1 32.7 17.7 5.2 2.3 11.8 1.9 17.7 2.6-0.8-6.7 0.2-14.5-2.9-19.9-6-10-14.3-18.6-22.1-28.4 22.7 9.8 42.6 22.8 53.5 45.2 20.4 42.2 25.8 52.8 55.8 75.4 10.6 8 27.6 18.3 25.6 27.8-0.9 4.4-5.5 7.7-9.1 10.3-7.3 5.2-14.7 6.5-18.6 6.9-14.7 4.7-27.1 5.4-35.1 5.2 0 0-31.1-0.5-63.8-20.6-1.1-0.7-2.1-1.4-2.1-1.4-2.1-1.6-3.8-3.4-5.7-5.1 18.8 3.1 36.2 9 54.2 12.7 9 1.9 19.4 1 28.4-1.3 4.5-1.1 11.3-9.8 10.3-12-3-6.4-8.5-12.8-14.7-16.2-3.7-2.1-12.4-0.9-15.7 2.1-12.4 11.9-25.9 13.6-43 8.1 23.4-10.2 25.4-23.5 7-39.6zm0.7-24.3q-6.8-0.6-13.7-1.2 13.3 11.6 26.5 23.3-6.4-11.1-12.8-22.1z"/>
				<path id="&lt;Path&gt;" class="s0" d="m185.3 117.2c2.5-3.6 2.9-7.7 2.9-8.6v-0.1c0.4-6-6-13.7-8.1-16.3-7.1-8.7-9.2-11.7-8.9-12.2 0.6-0.6 5.1 4.2 7.6 2.9 2.6-1.1 2-7.2 1.6-11.3-0.5-4.7-1.8-11.6-5.2-19.9 9.9 18.6 20.2 37.6 30.1 56.1-0.6 0-2.4 0.3-4.3 0.5q-1 1.5-2 3.1c4.1 2.9 8.2 5.8 10.4 7.4-5.6 4.3-10.4 7.9-15.1 11.3 4.9 3.4 9.7 6.9 14.8 9.8 9 5.1 18.3 9.8 27.5 14.8-9.9 0.2-18.8-2.8-27.1-1.9-5.8 0.6-11.2 6.6-16.8 10.1 5.8 2.2 11.6 4.6 17.6 6.5 1.4 0.5 3.4-0.4 5-0.2 13.7 2.3 27.3 4.8 40.9 7.1-20.9 8.8-44.5 1.5-63.3 19.9 13.3 4.6 25.1 8.5 40.2 13.6-14.4 1-26-0.3-36.1 3.1-10.1 3.2-18.8 11.1-27.8 16.8-5.5-15.5-1.5-30.6 5.1-46 1.9-4.2 1.2-13.2-1.5-14.8-4.1-2.3-11.3-1.5-16.3 0.1-4.8 1.7-8.4 6.3-12.5 9.6q-0.8-0.6-1.6-1.2c5.1-8.3 10.2-16.5 16.6-26.7-8.7 1.8-15.1 3.1-21.4 4.3q-0.9-1.2-1.7-2.5c8.2-6 16.3-12 25.6-18.8-5.3-3.5-8.8-5.6-14.6-9.5 15.6 0.9 30.1 5.5 38.4-7z"/>
				<path id="&lt;Path&gt;" class="s0" d="m229 60.8c4.2 4.6 8.3 9.3 12.7 13.8 7.6 7.8 6.1 15.6-0.7 22.5-10 10.1-30.9 7.3-36-5.8-5.2-13.7-6.4-28.9-11-42.9-3.3-10.2-8.5-20.1-14.8-28.9-4.9-6.9-11.4-4-12.2 3.9-2.4 26.7-6.3 53.6 9.3 78.4 2.5 4 2.9 9.3 4.3 14.1q-1.9 1.1-3.7 2.2c-10.7-8.7-21.2-17.2-34.5-28.1 8.1 0.4 12.2 0.7 16.5 0.9 0.1-30.7 1.9-60.8 11.2-90.9 9.1 7.6 16 15.9 23.4 23.8 11.8 12.6 23.9 25 36 37.5z"/>
				<path id="&lt;Path&gt;" class="s0" d="m229.5 61.3c-9.6-14.5-10.6-29.6-1.3-49.3q22.4 37.5 44.9 75.2-5.1-3.6-10.2-7.1-17-9.7-33.9-19.3 0.3 0.5 0.5 0.5z"/>
				<path id="&lt;Path&gt;" class="s0" d="m320.3 249.8q-33-12.9-65.9-25.9c-8.7-0.3-12.1 2.9-13.3 4.1-6.6 7.1-3.8 24.6 10.7 41 0.7 12.4 3.3 28.8 10.8 46.4 5 11.8 10.7 20.6 14.4 25.8 11.2 15.6 23.5 25.7 32.2 31.9-2.6-0.3-6.2-0.9-10.1-2.2-10.9-3.6-17.1-9.6-17.6-9.2-0.7 0.9 26.7 17.9 39.5 44 10.1 20.5 8.8 41.9 6.2 56.9-4.6-12.7-13.2-31.2-29.4-48.8-21.3-23.2-35.7-23.1-60.8-48.2-25.6-25.8-36.6-52.3-37.4-51.8-0.7 0.4 9.5 23.8 28.9 50.5 29.8 41.4 51.7 45.6 57 72.3 5.9 30.2-4.4 54.6-8.8 63.4-0.8-8.1-3-20.9-8.8-35.5-6.8-16.8-14.7-26.8-39.4-58.7-4.3-5.4-15-19.3-31.5-40.5q0-0.1 0-0.1c0 0 22.7 33.1 34.6 72.2 6.4 21.2 13.6 44.7 1.9 56-9.3 9.1-26 6.1-33.4 4.4 2.1-2.5 5.1-6.8 6.8-12.6 2.7-9.5 0.4-18.3-2.7-26.4-10.1-27.1-35.6-64.9-38.9-69.6-11.2 9-20.3 10.4-26 10.4-16.7 0-31.2-15.6-63-43.3-1.9-1.6-3.6-3.3-5.5-5.2-16.2-16.8-32.4-41.6-41.7-79.4q7.3-38.2 14.5-76.5c20.5-40.5 40.1-56.9 55-64.2 5.6-2.7 20.2-9 24.1-22.2 2.5-9-2.1-14.3 0.9-21.1 2.6-6 11-12.8 38.3-13.8 9.8 35.4 17.8 43.4 23.4 43.3 4.2 0 6.3-4.3 15.7-11.7 8.8-6.8 17-10.9 22.8-13.5q2.7-17.2 5.4-34.5 17 9 34 18 14.3 13.5 28.7 27.2 5.9 21 11.7 42.1c-0.7-1.3-5.4-9.7-14.9-11.3-9.4-1.6-19.9 3.9-21.8 11.6-1.6 6.5 3.5 12.6 8 17.7 8.8 10.5 18.9 15.3 28 19.6 38 18 45 19.3 52 28.4 6.4 8.3 8.6 17.6 9.4 25.5q-22 6.7-44 13.5z"/>
			</g>
			<path id="&lt;Path&gt;" class="s0" d="m95.3 343.9c26.6 27.5 45.7 54.7 51 51.5 5.6-3.5-11.1-37-7.1-39.2 4.1-2 22.7 27.7 26.1 33 26 41.3 29.6 60.5 30.7 69.9 1 9.1 2.7 26.8-6.5 32.8-5 3.3-11.2 1.9-14.6 1-32.5-8-67.5-31.8-96.8-49.7-13.5-8.3-14.2-8.1-31.3-18.6-36.6-22.9-46.5-30.7-46.5-30.8 0.2-0.2 58.9 32.5 107.8 52.3 5.7 2.4 25 10 45 3.4 4.6-1.5 13.9-4.6 15.1-10.8 1.4-7.5-10.4-13.6-28-27.6-25.1-20.3-41.6-40.9-42.9-39.7-0.7 0.6 5.9 6.4 7.9 16.7 1.3 6.9 0.1 13.3-1.7 18.2-5.6-16.3-13.8-25.4-20.1-30.5-10.9-9-17.3-7.2-27.5-17.1-9.4-9.1-13.2-19.3-17-29.1-4.8-12.3-4.5-18-8.4-36-2-8.7-5.1-21.4-10.3-36.9 29.6 38.7 56 67.7 75.1 87.2z"/>
		</g>
	</g>
</svg>