<svg version="1.2" xmlns="http://www.w3.org/2000/svg" viewBox="0 0 2040 500" width="2040" height="500">
	<title>illustration-section-01</title>
	<style>
		.s0 { fill: #ffffff } 
	</style>
	<g id="Page-2" style="opacity: .5">
		<g id="wolflogo">
			<g id="&lt;Group&gt;">
				<path id="&lt;Path&gt;" class="s0" d="m1896.4 135.1c6.6-3.2 13.2-6.5 22.4-11-13.4-3.6-24.9-6.7-39.4-10.5 11.2-7 21.2-13.3 33.4-21-8.3-5.4-16.7-10.8-24-15.6 21.3-5.3 69 13.8 88.2 35.8-13.4-5.4-25.2-5.3-28-0.5-3.4 5.5 5.3 16.8 13.1 22.7 10 7.7 23.5 10 24.8 7.4 0.6-1.3-2-4.9-14.6-13.6 6.8 1.5 31.3 7.5 49.6 30.9 19.5 24.9 18.4 52.2 17.9 58.7-1.6-15.5-8.6-27.2-18.3-29.8-2.7-0.8-7.9-1.3-9.2 0.9-2.3 4 10.6 12 18.4 27.4 5.6 10.7 6.1 20.3 6.7 30.2 1.5 23-5.1 41.6-10.2 52.6 1-3.2 4.1-14.4-1.5-25.9-2.2-4.4-5-7.5-7.3-9.6-31.7 43.4-41.5 50.3-44.5 48.6-7.5-4.2 33-57.4 15-108.7-8.9-25.2-31-49-57.7-60-10.6-4.4-22.4-5.9-34.8-9z"/>
				<path id="&lt;Compound-Path&gt;" fill-rule="evenodd" class="s0" d="m1766.3 217.3c-17.2 5.5-30.7 3.8-43.1-8.1-3.2-3-11.9-4.2-15.7-2.1-6.2 3.4-11.7 9.8-14.6 16.2-1 2.2 5.8 10.9 10.2 12 9.1 2.3 19.4 3.2 28.5 1.3 17.9-3.7 35.3-9.6 54.2-12.7-1.9 1.7-3.7 3.5-5.8 5.1 0 0-0.9 0.7-2 1.4-32.7 20.1-63.9 20.6-63.9 20.6-7.9 0.2-20.3-0.5-35-5.2-4-0.4-11.3-1.7-18.6-6.9-3.7-2.6-8.2-5.9-9.2-10.3-2-9.5 15.1-19.8 25.6-27.8 30.1-22.6 35.5-33.2 55.9-75.4 10.8-22.4 30.7-35.4 53.5-45.2-7.8 9.8-16.2 18.4-22.1 28.4-3.2 5.4-2.2 13.2-3 19.9 5.9-0.7 12.5-0.3 17.8-2.6 10.4-4.6 20.3-10.8 32.7-17.7-5.3 8.4-9.2 14.8-13.1 21.1q0.9 1.2 1.7 2.4 6.6-2.5 13.3-4.9 0.8 0.9 1.5 1.7c-13.6 12.4-27.2 24.9-40.9 37.1-4.7 4.3-10.1 7.9-14.9 12.1-18.5 16.1-16.5 29.4 7 39.6zm-20.5-41.8q13.2-11.7 26.5-23.3-6.9 0.6-13.7 1.2-6.4 11-12.8 22.1z"/>
				<path id="&lt;Path&gt;" class="s0" d="m1893.2 124.2c-5.8 3.9-9.2 6-14.6 9.5 9.3 6.8 17.5 12.8 25.7 18.8q-0.8 1.3-1.7 2.5c-6.3-1.2-12.7-2.5-21.5-4.3 6.4 10.2 11.5 18.4 16.7 26.7q-0.8 0.6-1.6 1.2c-4.2-3.3-7.8-7.9-12.5-9.6-5.1-1.6-12.2-2.4-16.4-0.1-2.6 1.6-3.3 10.6-1.5 14.8 6.6 15.4 10.7 30.5 5.2 46-9.1-5.7-17.8-13.6-27.8-16.8-10.2-3.4-21.8-2.1-36.2-3.1 15.1-5.1 26.9-9 40.2-13.6-18.8-18.4-42.3-11.1-63.2-19.9 13.6-2.3 27.2-4.8 40.9-7.1 1.5-0.2 3.5 0.7 5 0.2 5.9-1.9 11.7-4.3 17.5-6.5-5.6-3.5-10.9-9.5-16.7-10.1-8.4-0.9-17.3 2.1-27.1 1.9 9.1-5 18.4-9.7 27.5-14.8 5.1-2.9 9.8-6.4 14.7-9.8-4.7-3.4-9.4-7-15-11.3 2.1-1.6 6.3-4.5 10.3-7.4q-1-1.6-2-3.1c-1.8-0.2-3.7-0.5-4.3-0.5 10-18.5 20.2-37.5 30.2-56.1-3.5 8.3-4.8 15.2-5.3 19.9-0.4 4.1-0.9 10.2 1.6 11.3 2.6 1.3 7-3.5 7.6-2.9 0.4 0.5-1.8 3.5-8.9 12.2-2 2.6-8.4 10.3-8 16.3v0.1c0 0.9 0.3 5 2.8 8.6 8.4 12.5 22.9 7.9 38.4 7z"/>
				<path id="&lt;Path&gt;" class="s0" d="m1810.7 61.3c12-12.5 24.1-24.9 35.9-37.5 7.4-7.9 14.3-16.2 23.5-23.8 9.2 30.1 11 60.2 11.1 90.9 4.3-0.2 8.5-0.5 16.6-0.9-13.3 10.9-23.9 19.4-34.5 28.1q-1.9-1.1-3.8-2.2c1.4-4.8 1.8-10.1 4.4-14.1 15.5-24.8 11.7-51.7 9.2-78.4-0.8-7.9-7.3-10.8-12.2-3.9-6.3 8.8-11.4 18.7-14.8 28.9-4.6 14-5.8 29.2-11 42.9-5 13.1-26 15.9-35.9 5.8-6.8-6.9-8.3-14.7-0.7-22.5 4.3-4.5 8.4-9.2 12.7-13.8z"/>
				<path id="&lt;Path&gt;" class="s0" d="m1811.2 60.8q-17 9.6-33.9 19.3-5.1 3.5-10.3 7.1 22.5-37.7 45-75.2c9.2 19.7 8.2 34.8-1.3 49.3q0.2 0 0.5-0.5z"/>
				<path id="&lt;Path&gt;" class="s0" d="m1675.8 236.3c0.8-7.9 3.1-17.2 9.5-25.5 7-9.1 14-10.4 51.9-28.4 9.2-4.3 19.2-9.1 28.1-19.6 4.4-5.1 9.5-11.2 7.9-17.7-1.8-7.7-12.4-13.2-21.7-11.6-9.6 1.6-14.3 10-15 11.3q5.8-21.1 11.7-42.1 14.4-13.7 28.8-27.2 16.9-9 34-18 2.6 17.3 5.3 34.5c5.8 2.6 14.1 6.7 22.8 13.5 9.4 7.4 11.6 11.7 15.7 11.7 5.6 0.1 13.6-7.9 23.5-43.3 27.2 1 35.6 7.8 38.3 13.8 2.9 6.8-1.7 12.1 0.9 21.1 3.8 13.2 18.5 19.5 24.1 22.2 14.9 7.3 34.5 23.7 55 64.2q7.1 38.3 14.4 76.5c-9.2 37.8-25.5 62.6-41.6 79.4-2 1.9-3.7 3.6-5.5 5.2-31.9 27.7-46.3 43.3-63.1 43.3-5.7 0-14.8-1.4-26-10.4-3.2 4.7-28.8 42.5-38.9 69.6-3.1 8.1-5.3 16.9-2.7 26.4 1.7 5.8 4.8 10.1 6.8 12.6-7.4 1.7-24.1 4.7-33.4-4.4-11.7-11.3-4.5-34.8 1.9-56 11.9-39.1 34.7-72.2 34.7-72.2q0 0 0 0.1c-16.6 21.2-27.3 35.1-31.5 40.5-24.8 31.9-32.6 41.9-39.4 58.7-5.8 14.6-8 27.4-8.9 35.5-4.3-8.8-14.7-33.2-8.8-63.4 5.4-26.7 27.2-30.9 57.1-72.3 19.4-26.7 29.5-50.1 28.8-50.5-0.8-0.5-11.8 26-37.4 51.8-25 25.1-39.5 25-60.8 48.2-16.1 17.6-24.7 36.1-29.3 48.8-2.7-15-4-36.4 6.2-56.9 12.8-26.1 40.2-43.1 39.5-44-0.5-0.4-6.7 5.6-17.7 9.2-3.9 1.3-7.4 1.9-10 2.2 8.7-6.2 21-16.3 32.1-31.9 3.7-5.2 9.5-14 14.5-25.8 7.5-17.6 10-34 10.7-46.4 14.5-16.4 17.4-33.9 10.8-41-1.2-1.2-4.7-4.4-13.3-4.1q-32.9 13-65.9 25.9-22.1-6.8-44.1-13.5z"/>
			</g>
			<path id="&lt;Path&gt;" class="s0" d="m2019.9 256.7c-5.1 15.5-8.3 28.2-10.2 36.9-4 18-3.7 23.7-8.4 36-3.9 9.8-7.7 20-17.1 29.1-10.2 9.9-16.6 8.1-27.4 17.1-6.3 5.1-14.5 14.2-20.1 30.5-1.8-4.9-3.1-11.3-1.7-18.2 2-10.3 8.6-16.1 7.9-16.7-1.3-1.2-17.9 19.4-43 39.7-17.5 14-29.3 20.1-28 27.6 1.2 6.2 10.6 9.3 15.1 10.8 20 6.6 39.3-1 45-3.4 49-19.8 107.6-52.5 107.8-52.3 0 0.1-9.9 7.9-46.5 30.8-17 10.5-17.7 10.3-31.2 18.6-29.4 17.9-64.3 41.7-96.8 49.7-3.5 0.9-9.7 2.3-14.6-1-9.3-6-7.5-23.7-6.5-32.8 1.1-9.4 4.6-28.6 30.6-69.9 3.5-5.3 22.1-35 26.1-33 4 2.2-12.7 35.7-7.1 39.2 5.3 3.2 24.4-24 51-51.5 19.2-19.5 45.6-48.5 75.1-87.2z"/>
		</g>
	</g>
</svg>